<?xml version="1.0" encoding="UTF-8"?>
<svg width="424px" height="48px" viewBox="0 0 424 48" version="1.1" xmlns="http://www.w3.org/2000/svg" xmlns:xlink="http://www.w3.org/1999/xlink">
    <!-- Generator: Sketch 42 (36781) - http://www.bohemiancoding.com/sketch -->
    <title>Logo</title>
    <desc>Created with Sketch.</desc>
    <defs>
        <polygon id="path-1" points="0.052780083 0.142474874 0.052780083 46.5280031 81.3911527 46.5280031 81.3911527 0.142474874 0.052780083 0.142474874"></polygon>
        <polygon id="path-3" points="0.087966805 13.1533524 40.9511867 13.1533524 40.9511867 0.772121154 0.087966805 0.772121154"></polygon>
        <polygon id="path-5" points="0.70373444 13.1533524 33.1995519 13.1533524 33.1995519 0.772121154 0.70373444 0.772121154"></polygon>
        <polygon id="path-7" points="0.53659751 13.1533524 36.1745892 13.1533524 36.1745892 0.772121154 0.53659751 0.772121154"></polygon>
        <polygon id="path-9" points="0.636879668 13.1533524 35.6379917 13.1533524 35.6379917 0.772121154 0.636879668 0.772121154"></polygon>
    </defs>
    <g id="Page-1" stroke="none" stroke-width="1" fill="none" fill-rule="evenodd">
        <g id="Home-1920-final-open-nav-2.4" transform="translate(-748.000000, -18.000000)">
            <g id="Logo" transform="translate(748.000000, 18.000000)">
                <g>
                    <path d="M336.016481,12.0440335 C336.016481,12.5018476 336.054307,12.9332494 336.128199,13.3593687 C336.279502,14.2952465 336.318207,15.2011902 336.241676,16.0763196 C336.272465,16.7110965 336.461593,17.2032467 336.808183,17.5483681 C337.215469,17.6980381 337.591087,17.5087496 337.938556,16.9813829 C338.27283,16.7110965 338.384548,16.3862245 338.278108,16.0058866 C338.052033,14.5752175 337.915685,13.1639173 337.869942,11.7746275 C337.915685,11.4717658 337.764382,11.1504155 337.417793,10.8044137 C337.162689,10.651222 336.845129,10.7119704 336.467751,10.9813765 C336.241676,11.3150525 336.090373,11.5800565 336.016481,11.7746275 L336.016481,12.0440335 L336.016481,12.0440335 Z M339.86239,10.4636943 C339.784979,10.7339807 339.749793,11.1328073 339.749793,11.6610544 C340.004896,12.6717671 340.434174,13.6534263 341.037627,14.604271 C341.987668,15.8412496 343.081095,16.8413974 344.317909,17.5915083 C345.750008,18.2394914 347.242805,18.5643633 348.798058,18.5643633 C349.957461,18.5960582 351.087834,18.5564396 352.189178,18.4516706 C353.095237,18.2588604 353.976664,17.8186545 354.836979,17.1407375 C355.031386,16.9135912 355.319037,16.5579048 355.696415,16.0763196 C355.996382,15.6211467 356.050041,15.1721367 355.853876,14.7160833 C355.626921,14.2644321 355.289129,13.8295087 354.836979,13.4060306 C354.383071,13.0741153 354.007452,12.9420536 353.705726,13.0212906 C353.29844,13.0538658 352.943934,13.0538658 352.640448,13.0212906 C351.737909,12.6717671 351.020979,12.1576066 350.492299,11.4788091 C350.041909,11.2965639 349.890606,11.3978112 350.041909,11.7746275 C350.824813,12.9332494 351.579568,13.9325168 352.300896,14.7627452 C351.275203,15.3649468 349.805278,15.6299508 347.89112,15.5542354 C346.685095,15.32885 345.607502,14.9881306 344.657461,14.5355989 C343.979237,14.1579023 343.186656,13.3875419 342.282357,12.2262788 C342.025494,11.5800565 341.685062,10.9523229 341.262822,10.3483604 C341.007718,9.9706637 340.614506,9.92048023 340.087585,10.1907667 L339.86239,10.4636943 L339.86239,10.4636943 Z M342.914838,4.46456827 C342.613992,4.80792887 342.478523,5.3617079 342.508432,6.11534041 C342.703718,7.05033774 343.155867,7.89641349 343.864,8.650046 C344.545743,9.22407449 345.207253,9.52693615 345.855568,9.55951139 C346.337627,9.55951139 346.602407,9.48027433 346.64639,9.33060432 C346.722041,9.02598184 346.797693,8.72576141 346.873344,8.42289975 C346.904133,8.04784432 346.80649,7.63140954 346.579535,7.17975828 C346.399203,6.84784303 346.587452,6.43140824 347.146921,5.93309516 C347.568282,5.44974908 347.928946,5.17329977 348.232432,5.09758436 C348.486656,4.97520712 348.390772,4.87924223 347.936863,4.80352681 C347.636017,4.84578658 347.06951,5.15216989 346.240863,5.70770974 C345.939137,5.82832616 345.696349,5.7869468 345.516017,5.59237579 C345.440365,5.11431218 345.178224,4.62128157 344.724315,4.1238489 C344.301195,3.81922642 343.827054,3.81922642 343.300133,4.1238489 L342.914838,4.46456827 L342.914838,4.46456827 Z M350.267104,6.34248665 C351.322705,7.09523875 352.300896,7.88760937 353.207834,8.71871812 C353.658224,9.04887254 354.125328,9.12458796 354.610025,8.94234272 C355.213477,8.67029547 355.664747,8.31108745 355.968232,7.85855578 C356.086988,7.3752097 355.97527,6.92179762 355.626921,6.50184119 C354.844017,6.01585387 354.036481,5.5254645 353.207834,5.02979265 C352.603502,4.77007117 352.014124,4.69611657 351.44234,4.80352681 C350.990191,4.95583806 350.635685,5.10374724 350.378822,5.25517807 C349.957461,5.55627891 349.821112,5.84153233 349.971535,6.11534041 L350.267104,6.34248665 L350.267104,6.34248665 Z" id="Fill-1" fill="#DD4039"></path>
                    <path d="M309.902656,5.20763583 C309.753112,6.47454842 309.753112,7.73001566 309.902656,8.96787466 C310.038124,10.187245 310.34073,11.3872463 310.808714,12.5652373 C311.216,13.5143212 311.742921,14.3824073 312.390357,15.168615 C312.799402,15.5762457 313.124,15.8465321 313.364149,15.9856372 C313.771436,16.1176989 314.224465,15.8465321 314.719718,15.168615 C315.565079,14.809407 316.49049,14.5496855 317.503867,14.4000155 C317.533776,15.4556293 317.547851,16.4584183 317.547851,17.4092631 C317.517942,18.268545 317.580398,19.1102187 317.729062,19.9219583 C317.940183,20.7997289 318.060697,21.7100747 318.091485,22.6591587 C318.060697,23.0236491 318.277975,23.0236491 318.747718,22.6591587 C319.155004,22.2532888 319.592199,21.8905591 320.060183,21.5771325 C320.316166,21.3042049 320.422606,20.8736835 320.376863,20.2864488 C320.453394,18.1849059 320.527286,16.0904062 320.602938,13.9923848 C322.74405,13.7652386 324.81039,13.5627439 326.800199,13.3822595 C327.162622,13.2889358 327.38078,13.1066906 327.456432,12.8372845 C327.561112,12.4771961 327.691303,12.1338355 327.839967,11.8186481 C327.977195,11.320335 327.810058,11.0051476 327.343834,10.8678033 C327.992149,9.3138765 328.611436,7.74146101 329.198174,6.15848058 C329.334523,5.74908909 329.309892,5.43390167 329.12956,5.20763583 C328.843668,4.89068758 328.480365,4.61952075 328.044929,4.39413532 C327.683386,4.30081167 327.358788,4.34923432 327.071137,4.5261971 C326.998124,4.61952075 326.890805,4.75334334 326.756216,4.93558859 C326.679685,4.66530216 326.498473,4.5041868 326.212581,4.4592858 L324.583436,4.18899937 C323.919286,4.04989431 323.119668,4.07366543 322.185461,4.25591067 C321.748266,4.30081167 321.221344,4.36772297 320.602938,4.4592858 L320.602938,3.78136871 C320.631967,3.18180827 320.774473,2.65003954 321.033095,2.19838828 C321.183519,1.74233496 321.114905,1.40337642 320.828133,1.17623017 C320.316166,0.861923158 319.841145,0.658548031 319.40395,0.56522438 C319.08727,0.476302787 318.779386,0.588995498 318.4759,0.90682416 C318.1601,1.45003824 317.940183,2.01790386 317.819668,2.60513853 C317.759851,3.34468445 317.706191,4.10007778 317.661328,4.86515564 C316.863469,4.95583806 316.034822,5.11783383 315.173627,5.34321925 C314.224465,5.5703655 313.513693,5.68393862 313.047469,5.68393862 C312.941909,5.5034542 312.835469,5.29655743 312.730788,5.07293283 C312.505593,4.57285892 312.300631,4.18899937 312.119419,3.91959336 C311.833527,3.60440593 311.435037,3.53397299 310.921311,3.71269659 C310.558888,3.94160366 310.249245,4.32722403 309.993261,4.86515564 L309.902656,5.20763583 L309.902656,5.20763583 Z M317.459004,11.4788091 C316.327751,11.749976 315.113809,11.9084501 313.817178,11.9568727 C313.484664,11.4092566 313.304332,10.8678033 313.275303,10.3228284 L313.207568,9.23640026 C314.005427,8.76802118 314.894772,8.44491004 315.875602,8.26442562 C316.49049,8.12884221 317.022689,8.08218038 317.459004,8.12884221 L317.459004,11.4788091 L317.459004,11.4788091 Z M320.602938,7.44740347 C322.155552,7.35672105 323.226108,7.22113763 323.813726,7.04241404 C324.250041,6.86016879 324.688116,6.63302255 325.126191,6.36273612 C325.519402,6.13558988 325.842241,6.04314664 326.099104,6.0924497 C325.149062,8.36743381 324.272913,9.91343694 323.474174,10.7322199 C322.569876,10.7322199 321.611037,10.7753601 320.602938,10.8678033 L320.602938,7.44740347 L320.602938,7.44740347 Z" id="Fill-2" fill="#DD4039"></path>
                    <g id="Group-6" transform="translate(251.585062, 0.000000)" fill="#DD4039">
                        <path d="M31.5281826,3.04094238 C30.938805,3.81130271 30.3582241,4.57990222 29.7855602,5.34850172 C29.2709544,6.12062288 29.3633195,6.55026384 30.0564979,6.64006584 C31.2167801,6.05018993 32.3937759,5.68834068 33.5848465,5.55275726 C33.8698589,5.10022559 34.2542739,4.71548563 34.7372116,4.40117862 C35.4928465,3.53749464 35.600166,2.94937955 35.0538921,2.63507254 C34.799668,2.39031805 34.563917,2.15876975 34.354556,1.9316235 C33.7669378,1.30036824 33.1467718,1.34350842 32.4993361,2.06720692 L31.5281826,3.04094238 L31.5281826,3.04094238 Z M40.9362324,2.33925417 C40.6028382,2.24945216 40.2597676,2.2741037 39.8955851,2.40616547 C39.7900249,2.82876313 39.9342905,3.22318762 40.3266224,3.58415646 C40.505195,3.76640171 40.709278,3.94688613 40.9362324,4.12560972 C41.4033361,4.21893338 41.779834,3.99178713 42.0666058,3.44857304 C41.9311369,2.94937955 41.6214938,2.57960659 41.1403154,2.33925417 L40.9362324,2.33925417 L40.9362324,2.33925417 Z M39.67039,14.9696419 C39.7134938,15.423054 40.1744398,15.583289 41.0514689,15.4468251 C41.7288133,15.3579035 42.1422573,15.0620852 42.2918008,14.5637721 C42.0358174,14.0522528 41.5247303,13.7934118 40.7559004,13.7934118 C40.6204315,13.7934118 40.5509378,13.7018489 40.5509378,13.5231253 C40.8834523,12.7113857 41.0268382,11.574774 40.9828548,10.1282574 C40.8007635,9.58504333 40.4225062,9.38078779 39.8524813,9.51637121 C39.67039,10.1960491 39.6316846,10.9866589 39.7372448,11.8926027 L39.67039,14.9696419 L39.67039,14.9696419 Z M45.0064564,2.2741037 C44.6150041,2.31812429 44.2165145,2.38415517 43.8092282,2.47659841 C43.0843817,2.67293024 42.8521494,3.20029692 43.1081328,4.06045925 C43.0606307,4.87219894 43.3174938,5.41893467 43.876083,5.68834068 C43.0324813,7.27572317 43.2128133,7.25195205 44.4197178,5.62142938 C44.4786556,5.66809121 44.713527,5.57652838 45.1199336,5.34850172 C45.9494606,4.80616805 46.7798672,4.28584467 47.6093942,3.788412 C47.9718174,3.1096145 47.7369461,2.53646641 46.9082988,2.06720692 C46.3954523,1.47909183 45.9415436,1.47909183 45.5492116,2.06720692 L45.0064564,2.2741037 L45.0064564,2.2741037 Z M45.4374938,7.72649401 C44.3968465,7.32062417 43.876083,7.43419729 43.876083,8.06721338 C43.2875851,8.17374321 42.7070041,8.2697081 42.1343402,8.36303175 C41.4411618,8.45019252 41.1455934,8.67909959 41.2529129,9.0453509 C41.2986556,9.44769909 41.3356017,9.83243905 41.36639,10.1960491 C41.4411618,10.8748466 41.9311369,11.1468939 42.8363154,11.01043 C43.27439,10.9646486 43.7089461,10.9179868 44.1479004,10.8748466 C44.3898091,13.1066906 44.4197178,15.2874706 44.2385062,17.4180672 C44.1030373,18.3222501 43.8540913,18.7281199 43.4899087,18.6400788 C42.9497925,18.6832189 42.4606971,18.7281199 42.0217427,18.7730209 C41.3276846,18.7281199 41.2898589,18.8188024 41.9091452,19.0459486 C41.6971452,19.1824124 41.6971452,19.3197567 41.9091452,19.4535793 C41.7288133,19.6050101 41.7288133,19.7705275 41.9091452,19.9527728 C41.4728299,20.0416944 41.5088963,20.1781582 42.0217427,20.3586426 C42.3085145,20.5849084 42.5944066,20.8331846 42.8820581,21.1078731 C43.1081328,21.3799203 43.4529627,21.4036914 43.9227054,21.1747843 C44.4346722,20.5849084 44.9765477,20.1552675 45.5492116,19.8832202 C46.4561494,19.5521854 46.9302905,18.7501302 46.9760332,17.4832176 C47.0050622,14.8886441 46.8185726,12.4604683 46.409527,10.1960491 C47.4352199,9.87910088 48.4529959,9.58504333 49.4646141,9.31211567 C50.0821411,8.52942958 50.3152531,8.02231238 50.1639502,7.79164448 C49.592166,7.47733747 49.0714025,7.16391087 48.6042988,6.84784303 C48.1970124,6.57051331 47.8504232,6.64006584 47.5636515,7.0468161 L45.4374938,7.72649401 L45.4374938,7.72649401 Z M29.1741909,12.233322 C28.8874191,12.868099 28.6912531,13.4870285 28.5856929,14.0883497 C28.3288299,15.0365532 28.6912531,15.1518872 29.6703237,14.4255474 C30.4400332,13.5970799 31.0725145,12.7994268 31.5712863,12.0290665 C31.2563651,15.0295099 31.2563651,17.6055949 31.5712863,19.7476368 C31.9785726,20.4730961 32.3629876,20.3515993 32.7254108,19.386668 C32.9365311,19.1146207 32.9734772,18.8188024 32.8371286,18.5062562 C32.7183734,17.5105104 32.6567967,16.5790347 32.6567967,15.7171116 C32.6277676,14.8587101 32.7183734,14.016156 32.9294938,13.1841668 C33.1854772,12.2817447 33.1705228,11.5078627 32.883751,10.8748466 C33.4265062,10.0164451 33.933195,9.15364155 34.3985394,8.29171839 C34.7618423,9.56303304 35.6116017,9.9706637 36.9548548,9.51637121 L36.9548548,19.2493237 C37.0313859,20.0777912 37.2337095,20.3339911 37.5653444,20.0179232 C37.6717842,19.5521854 37.9418423,19.3197567 38.379917,19.3197567 C38.6359004,19.1824124 38.7423402,19.0001672 38.6974772,18.7730209 C38.8778091,15.3649468 39.0203154,11.9841655 39.1258755,8.63243776 C39.7134938,8.12003809 40.2597676,7.64021365 40.7559004,7.18504075 C41.4191701,6.73250908 41.5458423,6.189295 41.1403154,5.55275726 C40.8236349,5.19354924 40.3028714,5.1451266 39.5789046,5.41893467 C39.6396017,4.73925675 39.6554357,4.01379742 39.6237676,3.24343709 C39.5190871,2.88246825 39.6096929,2.5575963 39.8955851,2.2741037 C39.9703568,1.41041971 39.7002988,0.957888045 39.0818921,0.913867455 C38.796,0.867205629 38.6139087,0.776523213 38.5400166,0.640939795 C37.9963817,0.957888045 37.6497925,1.54776396 37.4984896,2.40616547 C37.3630207,3.73558729 37.2565809,5.00778235 37.1826888,6.23067435 C36.0206473,6.64006584 35.205195,7.02656662 34.7372116,7.38753547 C34.6932282,7.02656662 34.362473,6.68408643 33.7431867,6.36977942 C32.9136598,6.05018993 32.3700249,6.27645577 32.1149212,7.0468161 L29.1741909,12.233322 L29.1741909,12.233322 Z M34.5568797,13.6587088 C34.3475187,14.7143225 34.113527,15.7620126 33.8549046,16.8053006 C33.5690124,18.3460212 33.9551867,18.3909222 35.0107884,16.9417644 C35.4471037,15.4010437 35.7338755,13.8321499 35.8693444,12.233322 C36.3056598,11.2410979 36.1781079,10.6256901 35.4858091,10.4003047 C34.9113859,10.5358881 34.6615602,11.01043 34.7372116,11.8239306 L34.5568797,13.6587088 L34.5568797,13.6587088 Z" id="Fill-3"></path>
                        <path d="M4.93757676,12.8989134 C4.60506224,12.9895958 4.16786722,13.1260596 3.62687137,13.306544 C3.18879668,13.6833603 3.05860581,14.0733827 3.24245643,14.4810134 C3.60224066,15.0242275 4.29893776,15.1378006 5.32287137,14.8208523 C5.78909544,14.5514463 6.24388382,14.2758774 6.67843983,14.0082322 C6.86053112,14.6386071 7.32675519,14.9793265 8.08239004,15.0242275 C9.03243154,15.1615717 10.0493278,15.0708893 11.1348382,14.7557019 C11.9643651,14.165826 12.2898423,13.4526924 12.1086307,12.6268661 C11.7154191,12.0818912 10.7979253,12.0581201 9.3473527,12.5599548 C9.63500415,12.0581201 10.0343734,11.5166668 10.5472199,10.9303126 C10.9395519,10.7489477 11.4462407,10.6802756 12.0637676,10.7251766 C12.3962822,10.5429314 12.4992033,10.2004512 12.3786888,9.70742057 C12.0637676,9.25136726 11.7224564,9.04887254 11.3626722,9.09377355 L12.0637676,7.7106466 C12.3479004,7.17095416 12.8035685,6.73779155 13.4202158,6.4208433 C13.0877012,7.01071921 12.8325975,7.76787337 12.6505062,8.6879037 C12.6505062,9.27601879 12.6214772,9.84124317 12.5590207,10.3862181 C12.4411452,11.2463804 12.5062407,12.0818912 12.7639834,12.8989134 C13.0956183,13.6384593 13.9462573,14.1218054 15.3202988,14.3463104 C16.737444,14.4810134 18.2223237,14.3929722 19.7766971,14.0733827 C20.6202988,13.6534263 21.1648133,13.077637 21.4058423,12.3539385 C21.5536266,12.2623756 21.6688631,12.0581201 21.7445145,11.7429327 C21.6978921,11.6055884 21.6459917,11.450636 21.5826556,11.2666299 C21.433112,11.0879063 21.194722,11.110797 20.8622075,11.335302 C20.4689959,10.8836507 20.1461577,10.2268635 19.8901743,9.36670121 C19.7837344,9.18445596 19.6183568,9.16420649 19.3922822,9.29450744 C19.3307054,10.1132904 19.3307054,10.6802756 19.3922822,10.9989847 C19.5127967,11.4048545 19.3922822,11.6311204 19.0289793,11.6724997 C18.0806971,11.8107244 16.9855104,11.8793965 15.7504564,11.8793965 C14.9200498,11.7860728 14.4890124,11.5166668 14.4599834,11.0623743 C14.3394689,10.6565045 14.3394689,9.977707 14.4599834,9.02246019 C14.5972116,8.42113893 14.8831037,7.78107954 15.3202988,7.10404286 C15.9096763,6.19457747 16.2175602,5.6971448 16.2465892,5.60998403 C16.2175602,5.20235336 16.0732946,4.86163399 15.8173112,4.59134757 C15.3801162,4.2286179 14.9438008,4.2286179 14.5039668,4.59134757 C13.8873195,4.81673299 13.3067386,5.08701942 12.7639834,5.40308725 C12.1464564,4.81673299 11.638888,4.97520712 11.2500747,5.88115087 C11.0679834,6.06339611 10.7732946,6.22010941 10.3651286,6.35569283 C9.74848133,6.53441643 9.3473527,6.87161415 9.16790041,7.37344888 C8.74390041,6.9649378 8.2020249,6.94380792 7.53875519,7.30301593 C6.67843983,7.85063208 6.26411618,7.89289184 6.29490456,7.44124059 C6.57991701,6.98870892 7.10947718,6.67264108 7.87742739,6.49039583 C8.3753195,6.17520841 8.43073859,5.76757774 8.03576763,5.26926466 C7.85543568,5.13368124 7.41912033,5.13368124 6.72418257,5.26926466 C6.72418257,4.2286179 7.01975104,3.68188217 7.60648963,3.63698117 C8.3313361,3.36757516 8.78348548,3.09552791 8.96293776,2.82260025 C9.10104564,2.22039858 8.57060581,1.98620903 7.38041494,2.12267286 C7.4859751,1.57769796 7.53875519,1.2158487 7.53875519,1.03712511 C7.47717842,0.625972794 6.95817427,0.333676075 5.9773444,0.152311242 C5.38972614,-0.118855594 5.08184232,0.0598680028 5.05105394,0.695525327 C5.00619087,1.33118265 4.98419917,1.85062562 4.98419917,2.25825628 C4.5153361,2.30315728 4.0473527,2.42113247 3.58024896,2.61922512 C3.24773444,2.84637137 3.13425726,3.30066386 3.24245643,3.98122219 C3.60224066,4.25150861 4.20569295,4.32018073 5.05105394,4.1837169 C5.12582573,4.6829104 5.23138589,5.08701942 5.36685477,5.40308725 C5.44338589,5.7200355 4.84785062,6.03962499 3.58024896,6.35569283 C3.32514523,6.30815059 3.12018257,6.40235465 2.96975934,6.62597925 C2.72873029,7.03360992 2.76655602,7.4650117 3.08235685,7.91754337 C3.36912863,8.11299479 4.00160996,8.0909845 4.98419917,7.85063208 C5.10559336,7.98445467 5.14253942,8.1957535 5.09591701,8.48276775 C3.46677178,9.06912202 1.89128631,9.56831551 0.369460581,9.977707 C-0.0237510373,10.2506347 -0.0756514523,10.6565045 0.211120332,11.1979578 C0.647435685,11.6055884 1.24209129,11.7209224 1.99684647,11.5369163 C2.32848133,11.3599535 2.49649793,11.3599535 2.49649793,11.5369163 C1.72590871,12.4895219 0.928049793,13.5178429 0.0967634855,14.6165968 C-0.053659751,15.0708893 0.232232365,15.2496129 0.957078838,15.1615717 C1.75581743,14.4810134 2.35926971,13.6155686 2.76655602,12.5599548 C3.05156846,11.9683181 3.37792531,11.450636 3.73946888,10.9989847 C3.81512033,10.8581188 4.23032365,10.5649417 4.98419917,10.1132904 C4.92262241,10.5209211 4.92262241,10.905661 4.98419917,11.2666299 C4.1546722,11.5369163 3.73946888,11.854745 3.73946888,12.2192355 C3.88989212,12.5344229 4.27342739,12.6048558 4.89183402,12.4226106 L4.93757676,12.8989134 L4.93757676,12.8989134 Z M11.4066556,0.559061497 C11.3019751,1.05649417 11.2104896,1.42098466 11.1348382,1.6481309 C10.7425062,2.7072663 10.2384564,3.70565329 9.62004979,4.65737845 C9.31832365,5.15569154 9.40804979,5.35818625 9.89274689,5.26926466 C10.9782573,4.72605058 11.9731618,3.95569025 12.8774606,2.95818367 C13.3137759,3.18532991 13.962971,3.20910103 14.8232863,3.02861661 C15.6202656,2.93529296 16.0970456,2.72399413 16.2465892,2.39207888 C16.2465892,1.80396379 16.0293112,1.35231253 15.5921162,1.03712511 C14.9728299,1.03712511 14.3016432,1.2158487 13.5794357,1.57769796 C13.8653278,1.12692711 13.8653278,0.761556212 13.5794357,0.4921502 C13.3216929,0.446368786 12.9460747,0.333676075 12.4473029,0.152311242 C11.9643651,0.0598680028 11.6186556,0.197212245 11.4066556,0.559061497 L11.4066556,0.559061497 Z M6.06795021,12.692897 L6.13744398,12.4895219 L6.13744398,12.1505633 C6.574639,11.9234171 6.98896266,11.6055884 7.38041494,11.1979578 L9.28137759,11.0623743 C8.84242324,12.0114583 8.59523651,12.5344229 8.53541909,12.6268661 C8.0973444,12.76333 7.73580083,12.8989134 7.44639004,13.0344968 C7.44639004,12.5344229 7.19304564,12.3539385 6.67843983,12.4895219 L6.06795021,12.692897 L6.06795021,12.692897 Z M10.7064398,8.05488761 C10.3739253,8.6579697 10.1021079,9.09377355 9.89274689,9.36670121 C9.19692946,9.54718563 8.72102905,9.65899793 8.46592531,9.70742057 C8.3313361,9.65899793 8.29263071,9.45474239 8.35420747,9.09377355 C8.50375104,8.95378807 8.72102905,8.84197577 9.0086805,8.754815 C9.11248133,8.754815 9.20484647,8.47572446 9.28137759,7.91754337 C9.46170954,8.29524004 9.75639834,8.41233481 10.1636846,8.27851221 L10.7064398,8.05488761 L10.7064398,8.05488761 Z M6.06795021,10.7251766 C6.14360166,10.0481399 6.32393361,9.68276904 6.61158506,9.63874845 C6.94321992,9.36670121 7.14818257,9.4336125 7.22119502,9.84124317 C7.2519834,9.88966582 7.21415768,10.1132904 7.10947718,10.5209211 C6.85173444,10.5209211 6.50514523,10.5878324 6.06795021,10.7251766 L6.06795021,10.7251766 Z M10.9782573,17.943673 C11.2342407,18.1708193 11.4541577,18.4199758 11.63361,18.6937839 C11.0152033,18.7879879 10.4495768,18.8540188 9.93673029,18.8962786 L10.9782573,17.943673 L10.9782573,17.943673 Z M6.18142739,15.7725775 C5.42755187,15.9557032 4.75724481,16.1590783 4.16786722,16.3862245 C3.70164315,16.7489542 3.81512033,17.2683972 4.50829876,17.943673 C5.15661411,18.3548253 6.15151867,18.3548253 7.49389212,17.943673 C6.95113693,18.762456 6.51306224,19.2871814 6.18142739,19.5292947 C5.50320332,19.6683997 5.03609959,19.8013419 4.78011618,19.9386862 C4.44672199,20.3912178 4.4106556,20.9326711 4.666639,21.5683284 C4.92262241,22.0657611 5.87970124,22.0657611 7.53875519,21.5683284 C9.31832365,21.1131555 11.1902573,20.8226196 13.1483983,20.6835146 C13.5407303,21.1835885 13.8494938,21.59298 14.0746888,21.907287 C15.23761,22.0895322 15.7425394,21.5243078 15.5921162,20.2072118 C15.1980249,19.1991403 14.3702573,18.2192419 13.1035353,17.2683972 C13.6005477,17.2217353 14.2110373,17.2014859 14.9358838,17.2014859 C15.9598174,17.2014859 16.5403983,16.7489542 16.6785062,15.8412496 C16.3152033,15.2064727 15.7856432,14.8921657 15.0924647,14.8921657 L6.18142739,15.7725775 L6.18142739,15.7725775 Z" id="Fill-5"></path>
                    </g>
                    <path d="M233.619602,2.96698779 C232.821743,2.92208678 232.150556,3.08496297 231.605162,3.46530087 C231.063286,3.51020187 230.791469,3.78136871 230.791469,4.27880138 C230.460714,5.14160495 230.240797,5.93485599 230.136116,6.66031531 C229.366407,8.89215924 228.567668,11.0482878 227.739021,13.1331029 C226.971071,15.2751448 226.207519,17.4330342 225.453643,19.6085317 C225.198539,20.4369993 225.432531,20.853434 226.155618,20.853434 C226.667585,20.9000959 227.067834,20.6931991 227.353726,20.2380262 C227.639618,19.4139607 227.964216,18.6092643 228.326639,17.8424257 C228.809577,16.8484407 229.321544,15.8474125 229.866058,14.8560688 C230.076299,13.571548 230.541643,12.543227 231.267369,11.7746275 C231.884896,9.87029676 232.542008,7.98797632 233.235187,6.11357958 C233.59673,5.61438609 234.2081,5.25341725 235.069295,5.02979265 C235.475701,5.34145843 235.875071,5.43390167 236.266523,5.3018399 C236.704598,4.84578658 237.155867,4.5041868 237.623851,4.27880138 C238.724315,4.32722403 239.780797,4.1907602 240.790656,3.87645318 C241.437212,3.5568637 241.619303,3.20734021 241.33605,2.83052396 C241.001776,2.46779429 240.677178,2.13059657 240.360498,1.81276791 C240.029743,1.40337642 239.538888,1.40337642 238.889693,1.81276791 C238.045212,1.90433074 237.245593,2.01878427 236.492598,2.15348728 C236.341295,1.51871037 235.926971,1.06793952 235.249627,0.792370626 C234.404266,0.566985203 233.711087,0.566985203 233.166573,0.792370626 C233.136664,1.47204854 233.429593,2.08657598 234.049759,2.62626842 L233.619602,2.96698779 L233.619602,2.96698779 Z M233.235187,14.8560688 C231.969344,14.3419083 231.312232,14.6544545 231.267369,15.8033919 C231.236581,16.5737523 231.365892,17.3643621 231.651784,18.1796234 C232.224448,19.6895296 232.948415,20.8772052 233.822805,21.7338458 C234.004896,22.4135238 234.820349,22.5262165 236.266523,22.0745652 C238.150772,21.937221 240.0359,21.8007571 241.921909,21.6669345 C242.403967,21.6202727 242.570224,21.1923926 242.418921,20.3753704 C242.389012,20.090117 242.080249,19.8788182 241.491751,19.7423543 C241.41434,19.5601091 241.378274,19.4042762 241.378274,19.2678124 C241.816349,18.8584209 242.110158,18.3856397 242.259701,17.8424257 C242.548232,17.0720653 242.675784,16.2585648 242.644996,15.3975221 C242.570224,14.8983286 242.259701,14.4361124 241.718705,14.0179168 C241.175071,13.4729419 240.64639,13.42628 240.133544,13.8770509 C239.334805,13.6094057 238.483286,13.5627439 237.577228,13.7432283 C237.501577,13.0653112 237.488382,12.3865137 237.531485,11.7068358 C238.212349,11.2516629 238.914324,10.845793 239.636531,10.4830634 C240.404481,10.257678 240.880382,9.98210906 241.061593,9.66780204 C241.860332,8.93001695 241.899037,8.26618645 241.175071,7.67454971 C240.193361,7.49582612 239.378788,7.5389663 238.732232,7.81101354 C238.506158,7.4051437 238.212349,6.99751304 237.849046,6.59164319 C237.275502,6.27293412 236.717793,6.22891353 236.175917,6.45429895 C235.55839,7.08819545 235.120315,7.98093302 234.864332,9.12634878 C234.757892,10.8924549 234.719187,12.6876145 234.752614,14.5153494 L233.235187,14.8560688 L233.235187,14.8560688 Z M234.864332,18.3169676 C234.425378,17.9110978 234.569643,17.5501289 235.29273,17.2305395 C236.605195,16.9567314 237.870158,16.6204141 239.093776,16.2163051 C239.501942,15.9856372 239.61366,16.1898927 239.433328,16.8229088 C238.995253,18.1796234 238.376846,18.9966455 237.577228,19.2678124 C236.88405,19.3576144 236.197909,19.4711875 235.520564,19.6085317 C235.218838,19.6085317 235.036747,19.3831463 234.977809,18.9262126 L234.864332,18.3169676 L234.864332,18.3169676 Z" id="Fill-7" fill="#DD4039"></path>
                    <path d="M200.455237,4.22509626 C199.250091,6.57931743 198.104763,8.94234272 197.018373,11.3115309 C196.912813,12.0801304 196.912813,12.5115322 197.018373,12.6013342 C197.245328,12.5546724 197.446772,12.4428601 197.630622,12.2623756 C198.171618,12.3055158 198.569228,12.1047819 198.826971,11.6522503 C199.867618,9.977707 200.916183,8.29347921 201.970905,6.60220813 C202.122207,6.4208433 202.378191,6.33016089 202.740614,6.33016089 C203.056415,6.4208433 203.30712,6.62597925 203.487452,6.94204709 C203.456664,7.12429234 203.404763,7.32766746 203.329992,7.55305288 C202.498705,7.82598054 201.828398,8.1508525 201.314672,8.52766875 C200.984797,8.89039842 200.728813,9.47675268 200.545842,10.2937748 C200.440282,13.1154947 200.334722,15.9513011 200.230041,18.8055962 C200.018041,18.9429404 199.800763,19.0996537 199.574689,19.2836598 C199.077676,19.6120534 199.024017,20.0707479 199.415469,20.6571022 C199.807801,21.0233535 200.223004,21.0893844 200.65932,20.8675206 C202.438008,19.7168224 203.856913,18.5317881 204.909876,17.3132982 C204.68732,18.0818977 204.429577,18.8848332 204.141925,19.7115399 C204.067154,20.389457 204.286191,20.5937126 204.798158,20.3207849 C205.191369,20.1860819 205.536199,20.0284882 205.839685,19.8462429 C205.839685,19.5601091 205.892465,19.3039093 205.998025,19.0785238 C207.913062,19.0327424 209.798191,18.8293673 211.651651,18.4648768 C212.76883,19.2959856 213.85434,19.9606965 214.909942,20.4563683 C215.239817,20.6386136 215.510755,20.6174837 215.723635,20.389457 C215.903967,20.0284882 216.069344,19.6807255 216.221527,19.3488103 C216.538207,19.1683258 216.809145,19.1868145 217.03522,19.4157216 C217.428432,19.9747831 217.893776,20.3648055 218.43829,20.5937126 C218.799834,20.5470507 218.928266,20.3207849 218.822705,19.9131542 C218.686357,19.4042762 218.43829,19.0327424 218.075867,18.8055962 C217.69849,18.6700128 217.313195,18.6004602 216.919983,18.6004602 C215.686689,17.6460938 214.580066,16.765682 213.598357,15.9513011 C214.003884,13.6261335 214.314407,11.2446196 214.524647,8.799716 C214.494739,8.1957535 214.351353,7.84887125 214.095369,7.75730842 C213.884249,7.66662601 213.666091,7.62172501 213.439137,7.62172501 C213.122456,7.71240742 212.92805,7.84887125 212.851519,8.0311165 C212.775867,8.22480709 212.700216,8.43698634 212.624564,8.66149135 C210.96639,8.89039842 209.857129,9.63698763 209.300299,10.9039002 C209.088299,10.995463 208.907967,10.9725723 208.756664,10.8369889 C209.195618,8.87543142 209.745411,7.03360992 210.407801,5.31240484 C212.066855,4.85987317 213.581643,4.36332091 214.954805,3.81922642 C215.390241,3.5947214 215.633909,3.29890304 215.679651,2.93529296 C215.604,2.51269529 215.473809,2.16493263 215.294357,1.8937658 C214.857162,1.62171855 214.419967,1.53103613 213.983651,1.62171855 C212.71517,2.07425022 211.410622,2.490685 210.068249,2.86838166 C209.526373,2.58136742 209.037278,2.76185184 208.599203,3.41071534 C207.950888,5.7200355 207.406373,8.08218038 206.970058,10.4980304 C206.758938,10.7683168 206.54078,11.0421249 206.313826,11.3115309 C206.209145,11.2226093 206.103585,11.1530568 205.998025,11.1090362 C206.074556,10.4742593 206.162523,9.84124317 206.268963,9.20558585 C206.344614,8.52766875 206.087751,7.99766085 205.498373,7.62172501 C204.958257,7.48526118 204.437494,7.44124059 203.939602,7.48526118 C204.073311,7.35143858 204.233411,7.21409434 204.415502,7.07851092 C204.776166,6.80646367 204.958257,6.46750513 204.958257,6.05987446 C204.851817,5.6522438 204.670606,5.35818625 204.415502,5.17770183 C204.05132,5.08701942 203.691535,5.0183473 203.329992,4.97168547 C203.91673,3.97770054 204.211419,2.9978022 204.211419,2.02758839 C204.089145,1.57593713 203.75839,1.23873941 203.216515,1.01335399 C202.898075,0.96493134 202.648249,0.96493134 202.469676,1.01335399 C202.06151,1.05649417 201.769461,1.28187959 201.587369,1.68862984 L200.455237,4.22509626 L200.455237,4.22509626 Z M207.130158,3.81922642 C207.09849,3.2293505 206.865378,2.7222333 206.427303,2.30139646 C205.95844,2.12091204 205.469344,2.07425022 204.958257,2.16493263 C204.851817,2.30139646 204.723386,2.44754482 204.574722,2.595454 C204.361842,3.09376709 204.346888,3.43272563 204.52722,3.61497088 C204.858855,3.88701812 205.167618,4.22509626 205.45527,4.63448775 C205.846722,5.04035759 206.209145,5.13192042 206.54078,4.90477417 L207.130158,3.81922642 L207.130158,3.81922642 Z M209.48239,10.9725723 C209.691751,10.7480673 209.872083,10.5878324 210.023386,10.4980304 C210.566141,10.6785148 211.056116,10.5429314 211.494191,10.0886389 C211.7361,9.90815447 211.984166,9.75056075 212.240149,9.61409692 C212.134589,11.1090362 211.915552,12.5652373 211.584797,13.9853415 C211.042041,13.7414675 210.521278,13.2801317 210.023386,12.6013342 C209.843054,12.2870272 209.676797,11.8758749 209.526373,11.380203 L209.48239,10.9725723 L209.48239,10.9725723 Z M206.200349,18.4648768 C206.685046,16.970818 207.301693,15.4300973 208.056448,13.8479973 C208.569295,15.1131491 209.277427,16.1810886 210.183485,17.0394901 C208.915884,17.4902609 207.587585,17.9683246 206.200349,18.4648768 L206.200349,18.4648768 Z M202.128365,15.2064727 C203.185726,14.6165968 204.089145,13.9994281 204.84478,13.3496842 C204.918672,13.0758761 204.980249,12.8284804 205.025112,12.6013342 C205.16234,12.5546724 205.318921,12.4877611 205.498373,12.3988395 C205.651436,12.8522515 205.884548,13.1463091 206.200349,13.2801317 C206.020017,13.9325168 205.823851,14.5734566 205.61273,15.2064727 C205.281095,14.8868832 204.958257,14.6165968 204.642456,14.3912114 C204.353925,14.3912114 204.097062,14.4563619 203.872747,14.5963473 C203.766307,14.7768318 203.691535,14.9555554 203.645793,15.1378006 C203.691535,15.5005303 203.817328,15.887031 204.028448,16.2929009 C203.381012,16.7471934 202.733577,17.2199745 202.084382,17.7200484 L202.128365,15.2064727 L202.128365,15.2064727 Z M202.514539,10.5649417 L202.514539,9.40984138 C203.027386,9.27601879 203.516481,9.00221072 203.984465,8.59458005 C204.242207,8.77506447 204.370639,9.04887254 204.370639,9.40984138 C204.47356,10.2268635 204.451568,11.0623743 204.302025,11.9234171 C203.683618,12.5115322 202.996598,13.0758761 202.241842,13.6243727 C202.212813,13.1691998 202.226888,12.7149073 202.287585,12.2623756 C202.800432,12.0369902 203.292166,11.7658234 203.75839,11.4488751 C204.014373,11.3115309 204.126971,11.0843846 204.097062,10.7683168 C203.946639,10.4980304 203.779502,10.3606861 203.59917,10.3606861 L202.514539,10.5649417 L202.514539,10.5649417 Z" id="Fill-8" fill="#DD4039"></path>
                    <path d="M177.247834,4.02612319 C177.864481,4.70315987 178.678174,5.17946266 179.688913,5.45327073 C179.539369,7.26251699 179.515618,9.08144778 179.621178,10.9074219 C179.666921,11.5870998 179.198938,11.9498294 178.218988,11.99385 C178.143336,11.7675842 178.015784,11.495537 177.835452,11.1777083 C177.729892,11.0430053 177.729892,10.8387497 177.835452,10.5684633 C177.938373,10.1608327 177.849527,9.70742057 177.563635,9.20822708 C177.095651,8.46956158 176.552017,7.89641349 175.93361,7.487022 C175.135751,7.08115216 174.736382,7.30653758 174.736382,8.16846074 C174.811154,9.58680416 175.609892,10.9523229 177.132598,12.2658973 C175.865876,12.4463817 174.562207,12.6955382 173.220714,13.0142473 C172.268913,13.2396327 171.817643,13.5336903 171.863386,13.8964199 C171.939037,14.3929722 172.187983,14.8763183 172.609344,15.343817 C173.092282,15.8412496 173.708929,15.9336929 174.464564,15.6158642 C176.243253,15.2997964 178.039535,14.9969347 179.847253,14.70904 C179.770722,17.3969373 179.884199,19.9695006 180.185925,22.4302516 C180.368017,23.0183667 180.668863,23.2675232 181.091983,23.1768408 C181.39371,22.9065544 181.574041,22.5887257 181.633859,22.2277569 C181.603071,21.8201262 181.716548,21.503178 181.97429,21.2751513 C182.290971,20.913302 182.417643,20.4995085 182.357826,20.0311294 C182.388614,18.3099243 182.417643,16.4240822 182.449311,14.3692011 C184.409212,14.1438157 186.482589,14.0769044 188.669444,14.1675868 C189.21132,14.2124878 189.626523,14.1438157 189.914174,13.9633312 C190.049643,13.6930448 190.156083,13.261643 190.229975,12.6735279 C190.276598,11.9498294 189.936166,11.495537 189.21132,11.3132917 C187.430871,11.1777083 185.380365,11.2252505 183.06068,11.450636 C183.934191,10.3642078 184.951967,9.42744962 186.111369,8.6430027 L187.199519,7.69391877 C187.51532,7.46677253 187.711485,7.12605316 187.786257,6.6744019 C187.606805,6.22187023 187.204797,5.9058024 186.588149,5.72267674 C185.835154,5.76757774 185.328465,6.19809912 185.072481,7.01248004 C184.062622,8.43346469 183.210224,9.84300399 182.517046,11.2463804 C182.517046,10.1150512 182.477461,9.02157978 182.403568,7.96332479 C182.328797,6.87689662 182.455469,5.85914057 182.787983,4.90829582 C182.817892,4.54556616 183.358888,4.1837169 184.416249,3.82098724 C184.883353,3.68540382 185.192116,3.31739169 185.343419,2.71254877 C185.343419,2.03287086 185.140216,1.51166707 184.732929,1.15069823 C183.979054,0.696405739 183.021095,0.650624325 181.860813,1.01335399 C180.880863,1.19559923 179.922905,1.33118265 178.987817,1.42274548 C178.007867,1.64637008 177.375386,1.89904827 177.088614,2.1702151 C176.75522,2.66764777 176.808,3.28657727 177.247834,4.02612319" id="Fill-9" fill="#DD4039"></path>
                    <path d="M159.249826,5.80719627 C159.460066,5.21732036 158.932266,4.85635152 157.665544,4.72252893 L157.282008,4.72252893 C156.48327,4.76566911 155.849909,5.19707089 155.381925,6.0105714 C154.913062,7.88496814 155.019502,10.2233419 155.697726,13.0292143 C156.103253,14.4466773 156.979402,15.1809408 158.321776,15.2258418 C160.023934,15.408087 161.72961,15.3385345 163.434407,15.0207058 C164.519037,14.7953204 165.076747,14.0857085 165.108415,12.8918701 C165.002855,12.2130726 164.767983,11.8072027 164.40732,11.6707389 C165.537693,8.57785223 165.950257,6.69112973 165.65117,6.0105714 C165.183187,5.19707089 164.444266,5.05796583 163.434407,5.60470156 C162.408714,5.51137791 161.01268,5.58181085 159.249826,5.80719627 L159.249826,5.80719627 Z M162.347137,8.61570994 C161.503535,11.0588527 160.499834,12.3275261 159.338672,12.4173281 C159.021992,11.6020668 158.916432,10.651222 159.021992,9.56479386 C159.823369,9.2020642 160.869295,8.90800665 162.166805,8.68086041 L162.347137,8.61570994 L162.347137,8.61570994 Z M151.851817,4.51739298 C152.860797,4.24446532 153.564531,3.86060577 153.956863,3.36229269 C154.331602,2.62274677 154.211967,1.91401527 153.59444,1.23521776 C152.82473,0.918269514 151.187668,0.961409692 148.686772,1.37080118 C147.780714,1.37080118 147.47195,1.98973068 147.760481,3.22670927 C148.270689,3.9970696 148.836315,4.47161156 149.454722,4.65209598 C149.561162,4.92502364 149.598108,5.4664769 149.56732,6.28173824 C148.543386,6.78093173 147.52561,7.30125511 146.514871,7.8453496 C146.077676,8.31284827 145.714373,8.75129335 145.428481,9.1571632 C144.916515,10.2453522 145.081892,10.9003786 145.927253,11.1275248 C146.906324,11.2622278 147.68483,11.1944361 148.256614,10.9250301 C147.863402,11.7825512 147.306573,12.6444744 146.581726,13.5037563 C146.28088,13.8805725 146.039851,14.2054445 145.860398,14.4792526 C145.495336,15.1122687 145.278058,15.6105817 145.201527,15.9697898 C145.248149,16.6512285 145.707336,16.6952491 146.581726,16.107134 C147.486905,15.4300973 148.370091,14.4924587 149.229527,13.2995007 C149.197859,14.8560688 149.167071,16.3791812 149.138041,17.8732401 C149.06239,18.552918 148.844232,18.8469755 148.481809,18.7554127 C147.969842,18.5766891 147.81766,18.8038354 148.02966,19.4368514 C148.105311,19.6323029 148.165129,19.9334037 148.208232,20.3410344 C148.270689,20.9291495 148.50556,21.0893844 148.911967,20.8173372 C149.305178,20.5012693 149.703668,20.205451 150.110954,19.9334037 C151.119054,19.2387588 151.587917,17.0069149 151.513145,13.2325894 C152.055021,13.7018489 152.620647,13.956288 153.208266,14.0029498 C154.007884,13.8515189 154.460913,13.3681729 154.567353,12.5529115 C154.567353,11.7385306 153.843386,11.3080092 152.394573,11.2622278 C151.746257,11.0368424 151.58088,10.6732323 151.89844,10.1784409 C152.66639,9.49964339 153.428183,8.84021495 154.182058,8.20807927 C154.648282,7.51343435 154.702822,6.91651515 154.340398,6.41996289 L153.481842,5.80719627 C152.968116,5.44270579 152.40249,5.37755531 151.784083,5.60470156 L151.851817,4.51739298 L151.851817,4.51739298 Z" id="Fill-10" fill="#DD4039"></path>
                    <path d="M117.541245,5.87058592 C117.76644,6.95613368 118.332066,7.54424877 119.237245,7.63493118 C119.372714,8.23889368 119.388548,8.87983348 119.283867,9.55951139 C118.967187,9.78665764 118.656664,10.0340534 118.354058,10.3078614 C117.857046,10.7595127 117.678473,11.2587062 117.813062,11.8001594 C118.144697,12.4349364 118.581012,12.8416866 119.123768,13.0239318 C119.27683,13.5829933 119.260996,14.1781517 119.080664,14.8111678 C118.413876,15.1738975 117.836813,15.5815281 117.338921,16.0349402 C116.491801,16.8933417 116.417909,17.6874732 117.110207,18.4120521 C118.166689,19.0459486 118.981261,19.0890888 119.553046,18.5458747 C119.91371,18.0951039 120.302523,17.6434526 120.70805,17.1873993 C121.386274,17.7323742 121.982689,17.8221762 122.492896,17.4612074 C123.217743,17.1442591 123.963701,16.8484407 124.733411,16.5790347 C123.88805,18.0246709 123.195751,19.4139607 122.652996,20.7433826 C122.472664,21.2408152 122.56151,21.3984089 122.923934,21.2179245 C123.150888,20.9925391 123.391917,20.878966 123.6479,20.878966 C124.144033,20.7433826 124.575071,20.4475642 124.937494,19.9950325 C125.299917,19.3021484 125.685212,18.5256252 126.090739,17.6637021 C127.131386,16.4408101 128.306622,15.8306847 129.619967,15.8306847 C130.959701,15.6933404 132.302954,15.5586374 133.647087,15.423054 C134.581295,15.2874706 135.215535,15.3094809 135.54717,15.4899653 C136.089925,15.9891588 136.682822,15.9891588 137.332017,15.4899653 C137.69444,14.9018502 137.605593,14.3824073 137.062838,13.9289952 C136.744398,13.8242262 136.497212,13.6569479 136.31688,13.4298017 C135.983485,13.1586349 135.622822,13.0688329 135.227851,13.1586349 C134.612083,13.6278943 133.670838,13.9043437 132.401477,13.9976673 C132.612598,10.9470404 132.770938,7.89993514 132.877378,4.85106905 C133.676116,4.76038664 134.217112,4.44343839 134.505643,3.9002243 C134.626158,3.17476497 134.227668,2.69317972 133.306656,2.45106647 C133.124564,1.77314938 132.823718,1.207925 132.401477,0.752752094 C131.99595,0.345121428 131.57283,0.321350309 131.134755,0.685840797 C130.923635,1.22993529 130.727469,1.79604008 130.545378,2.38415517 C129.82229,2.53294477 129.114158,2.67821271 128.4201,2.81203531 C128.4201,2.67821271 128.255602,2.39736135 127.922207,1.9765245 C127.563303,1.65957625 127.167452,1.61379484 126.746971,1.84006067 C126.264033,2.39736135 125.917444,2.94937955 125.705444,3.49259364 C125.267369,3.62729664 124.831054,3.78665118 124.396498,3.9671356 C123.596,4.32986526 123.345295,4.78239693 123.6479,5.32737184 C123.707718,5.87058592 123.956664,6.23067435 124.396498,6.4129196 C124.800266,6.50360201 125.164448,6.68408643 125.479369,6.95613368 L125.479369,14.7442565 C123.896846,14.8780791 122.886108,15.0603244 122.448033,15.2874706 C122.808697,14.9696419 123.046207,14.5408814 123.150888,13.9976673 C123.226539,13.0309751 122.916896,12.6612022 122.222838,12.8883484 C121.681842,13.1586349 121.153162,13.4526924 120.639436,13.7705211 C120.533876,13.1806451 120.986025,12.3653838 121.998523,11.3256175 C122.51049,10.826424 122.660913,10.1476265 122.448033,9.28922497 C121.966855,8.69934906 121.453129,8.40353069 120.910373,8.40353069 C120.881344,8.12003809 120.97283,7.8154156 121.182191,7.49934776 C121.483037,7.0917171 121.79356,6.70697714 122.109361,6.3460083 C122.98639,5.16625648 123.188714,4.17051073 122.72161,3.35701022 C122.419004,2.81203531 121.817311,2.63155089 120.910373,2.81203531 C119.977925,3.12986397 119.123768,3.49259364 118.354058,3.9002243 C117.678473,4.30785497 117.405776,4.96288135 117.541245,5.87058592 L117.541245,5.87058592 Z M128.035685,7.36376435 C128.035685,7.00103468 128.059436,6.68408643 128.104299,6.4129196 C128.495751,5.96038793 129.234672,5.68834068 130.320183,5.59765826 C130.139851,5.96038793 130.011419,6.48159172 129.935768,7.1586284 L128.035685,7.36376435 L128.035685,7.36376435 Z M128.035685,9.42216715 C128.518622,9.15188072 129.099203,8.9713963 129.777427,8.87983348 C129.746639,9.42216715 129.732564,9.96890288 129.732564,10.5103561 C129.401809,10.4205541 128.820349,10.5341273 127.990822,10.8493147 L128.035685,9.42216715 L128.035685,9.42216715 Z M127.990822,12.6840929 C128.744697,12.3653838 129.342871,12.2315612 129.777427,12.2747014 C129.746639,12.8645773 129.710573,13.4632573 129.66395,14.0645786 C129.090407,14.1561414 128.533577,14.2697146 127.990822,14.405298 L127.990822,12.6840929 L127.990822,12.6840929 Z M135.048398,19.2246722 C134.323552,17.7772752 133.351519,16.8933417 132.131419,16.5790347 C131.798025,16.5790347 131.557876,16.6230553 131.406573,16.7128573 C130.93771,17.0289252 130.796083,17.4832176 130.977295,18.0730936 C131.745245,19.0380249 132.273925,19.9730222 132.560697,20.878966 C132.846589,21.5586439 133.464996,21.7153572 134.415037,21.3535079 C135.01761,21.2179245 135.227851,20.509193 135.048398,19.2246722 L135.048398,19.2246722 Z" id="Fill-11" fill="#DD4039"></path>
                    <path d="M91.4432531,4.65209598 C92.3026888,5.10198642 92.8982241,5.62495103 93.2298589,6.21306612 C93.8491452,6.52825354 94.3919004,6.16640429 94.8590041,5.12487712 C95.0085477,4.35627762 94.361112,3.42920398 92.9140581,2.34277582 C91.9314689,1.91577609 91.0447635,2.00909974 90.2442656,2.61218183 C89.8061909,3.0198125 89.8967967,3.56302658 90.5152033,4.24270449 L91.4432531,4.65209598 L91.4432531,4.65209598 Z M90.2891286,10.6494612 C90.9365643,11.0121909 91.4107054,11.3749205 91.7168299,11.7367698 C92.1065228,11.645207 92.2666224,11.1037537 92.1892116,10.1080079 C92.0845311,9.47147021 91.4107054,8.99692825 90.1774108,8.68086041 C89.2423237,8.90624583 88.9159668,9.33588679 89.2044979,9.9706637 L90.2891286,10.6494612 L90.2891286,10.6494612 Z M89.5880332,16.6494677 C89.4077012,16.8317129 89.27839,17.1477807 89.2044979,17.5985516 C89.6716017,18.9737548 90.1774108,19.9113934 90.7184066,20.4061848 C91.3077842,20.8587165 91.7282656,20.7918052 91.9860083,20.205451 C92.2719004,19.3725814 92.235834,18.5265056 91.8725311,17.6672237 C91.4071867,16.6248161 91.369361,15.6519611 91.7599336,14.7468978 C91.578722,14.4757309 91.2919502,14.8587101 90.9004979,15.9011176 C90.749195,16.3105091 90.4026058,16.4689832 89.858971,16.3774204 L89.5880332,16.6494677 L89.5880332,16.6494677 Z M97.0291452,9.42744962 C95.7333942,9.87910088 95.0991535,10.3554037 95.1308216,10.8528363 C95.1308216,11.6231967 95.4246307,12.233322 96.012249,12.6876145 C96.5550041,13.0952452 97.2798506,13.0952452 98.1832697,12.6876145 C97.9580747,13.7000881 97.5340747,14.6544545 96.9174274,15.5621591 C95.7553859,17.1011189 94.4754689,18.3020006 93.0723983,19.1612825 C92.7697925,19.8110265 93.0794357,19.9316429 93.9978091,19.5240122 C94.8590041,19.0116125 95.7114025,18.5731675 96.5550041,18.2121986 C97.9272863,17.4867393 99.1728963,16.1265031 100.286556,14.1350115 C101.855004,16.671478 103.851851,18.7386849 106.280614,20.3375127 C106.718689,20.474857 107.118938,20.3375127 107.480481,19.9316429 C107.976614,19.7062575 108.739286,19.8163089 109.764979,20.2706014 C110.595386,20.2706014 110.049992,19.4500576 108.138473,17.8028071 C105.451087,15.8579775 103.454241,13.7898901 102.141776,11.600306 C103.091817,11.4180607 104.033942,11.1486547 104.969909,10.7841642 C105.842539,10.422315 106.258622,10.0129235 106.213759,9.56127221 C106.002639,9.19854255 105.768647,8.72576141 105.512664,8.13764632 C105.016531,7.44476223 104.367336,7.23082216 103.567718,7.50286941 C102.902689,7.68335383 102.208631,7.9193042 101.483784,8.20631845 C101.456515,7.14894387 101.532166,6.05459199 101.712498,4.921502 C102.464614,4.37828791 103.485909,3.90198512 104.765826,3.49611528 C105.232929,2.9529012 105.050838,2.26529958 104.222191,1.43419083 C103.664481,0.802055155 103.205295,0.622451147 102.842871,0.892737571 C101.802224,1.25546724 100.679768,1.68422779 99.4719834,2.18254087 C98.5685643,2.51445612 97.8076515,2.9978022 97.1866058,3.6316987 C96.7661245,4.31137661 96.8259419,4.71900728 97.3686971,4.85282988 L98.5685643,5.05796583 C98.8843651,5.14688742 99.2230373,5.21555954 99.5854606,5.26222137 C99.5546722,6.43845154 99.4271203,7.62348583 99.2019253,8.814683 L97.0291452,9.42744962 L97.0291452,9.42744962 Z" id="Fill-12" fill="#DD4039"></path>
                    <g id="Group-16" transform="translate(0.000000, 0.880412)">
                        <mask id="mask-2" fill="white">
                            <use xlink:href="#path-1"></use>
                        </mask>
                        <g id="Clip-14"></g>
                        <path d="M63.3536929,6.02906005 C63.205029,8.08041956 63.1267386,10.1493873 63.1267386,12.2315612 C62.1626224,12.4120456 61.1905892,12.5942909 60.210639,12.7765361 C59.590473,13.0468226 59.5016266,13.6208511 59.9388216,14.4959804 C60.1499419,15.0840955 60.5800996,15.2205593 61.2284149,14.9018502 C61.710473,14.6755844 62.328,14.4959804 63.0836349,14.3586361 C61.8925643,16.2603256 61.2741577,17.4832176 61.2284149,18.0281926 C61.1985062,18.6629695 61.3638838,18.8416931 61.7263071,18.5714066 C62.8426058,17.3493951 63.7469046,16.1485133 64.4409627,14.9687615 C64.7717178,14.200162 65.277527,13.7942922 65.9566307,13.7485108 C67.1626556,13.5072779 68.3818755,13.2493173 69.6204481,12.9781504 C70.1174606,12.8883484 70.4033527,12.6189424 70.4798838,12.1646499 C70.4482158,11.7121183 70.0717178,11.4180607 69.347751,11.2807165 C69.4075685,8.73104388 69.3855768,6.18753417 69.2791369,3.65106776 C69.6433195,3.60616676 70.0268548,3.58239564 70.4323817,3.58239564 C71.263668,3.53925546 71.6788714,3.24343709 71.6788714,2.70022301 C71.4211286,1.8268545 70.7517012,1.36551871 69.6644315,1.32061771 C69.4524315,0.731622211 69.1295934,0.344241016 68.6923983,0.16551742 C68.1496432,0.0739545917 67.8030539,0.255319424 67.6535104,0.708731504 C67.5752199,0.980778752 67.5004481,1.25194559 67.426556,1.52399284 C66.6260581,1.56889384 65.8501909,1.68422779 65.0954357,1.86295138 C64.9907552,1.41041971 64.8464896,1.02744058 64.667917,0.708731504 C64.3793859,0.302861661 64.0565477,0.302861661 63.6941245,0.708731504 C63.57361,1.16126317 63.4618921,1.63932678 63.3536929,2.13411822 C62.6605145,2.27234287 61.9910871,2.52854271 61.3410124,2.90447855 C60.6935768,3.44857304 60.7454772,4.17227155 61.4993527,5.07645447 C62.0412282,5.53074697 62.6226888,5.77990351 63.2419751,5.82656533 L63.3536929,6.02906005 L63.3536929,6.02906005 Z M67.2690954,8.76890159 C66.7685643,8.40705234 66.2266888,8.36127092 65.6381909,8.63243776 C65.277527,8.85782318 64.9520498,8.94938601 64.667917,8.90448501 C64.6195353,8.45019252 64.6195353,7.96860726 64.667917,7.45444676 C65.526473,7.36552517 66.2636349,7.16038922 66.8820415,6.84432138 C67.1837676,6.39002889 67.206639,6.05195076 66.9506556,5.82656533 C66.6190207,5.55275726 66.2565975,5.53074697 65.8642656,5.75789321 C65.4270705,5.89523745 65.0039502,5.91548693 64.5984232,5.82656533 C64.7206971,5.10022559 65.6610622,4.49010021 67.426556,3.99354795 L67.2690954,8.76890159 L67.2690954,8.76890159 Z M64.3943402,12.0290665 C64.6045809,11.529873 64.7119004,11.0535702 64.7119004,10.6027994 C64.9678838,10.3281109 65.4420249,10.1493873 66.1369627,10.0595853 C66.6031867,9.96890288 67.0043154,9.85356893 67.3359502,9.71974634 C67.2910871,10.3985438 67.2295104,10.9866589 67.1547386,11.484972 C66.9128299,11.574774 66.6788382,11.6434461 66.4527635,11.6883471 C66.377112,11.3256175 66.1211286,11.0984712 65.6848133,11.0086692 C65.32239,11.0984712 64.9300581,11.4391906 64.5078174,12.0290665 L64.3943402,12.0290665 L64.3943402,12.0290665 Z M67.9226888,14.9018502 C67.2295104,14.6306834 66.7263402,14.6306834 66.4070207,14.9018502 C66.4070207,15.0383141 66.4457261,15.1510068 66.5204979,15.2425696 C66.9876017,15.9662681 67.3658589,16.7146181 67.6535104,17.4832176 C67.9825062,18.0713327 68.5490124,18.0502028 69.347751,17.4145455 C69.4075685,17.6434526 69.4761826,17.8459473 69.5509544,18.0281926 C69.6274855,18.7069901 70.1174606,18.5247448 71.0217593,17.4832176 C71.4906224,16.3976699 72.1609295,13.8321499 73.0344398,9.78841846 C73.6845145,10.3747727 74.3697759,10.6027994 75.0928631,10.4654551 C75.063834,14.6905514 75.0999004,18.2843924 75.2063402,21.2425761 C75.3576432,21.6942273 75.5916349,21.672217 75.9074357,21.1730235 C76.089527,20.6298094 76.4484315,20.3375127 76.9938257,20.2890901 C77.7327469,20.1103665 78.0793361,19.4007546 78.034473,18.163776 C78.1101245,15.2663407 78.1857759,12.3627426 78.259668,9.44769909 C78.3669876,9.04006843 78.9625228,8.9264953 80.0480332,9.10697972 C80.7711203,9.19854255 81.2083154,9.01629731 81.3587386,8.56376564 C81.4950871,8.00470414 81.201278,7.47733747 80.4773112,6.97814398 C79.7990871,6.43669071 79.3073527,6.41468042 79.0073859,6.91123268 C78.5086141,7.45444676 78.005444,7.52311888 77.4899585,7.11636863 C76.9489627,6.88922238 76.4792199,6.91123268 76.089527,7.18327993 C75.4253776,7.59091059 74.4982075,7.93779284 73.3080166,8.22480709 C73.4883485,6.80646367 73.4883485,5.59765826 73.3080166,4.60191251 C74.2870871,3.74175018 75.2828714,3.24343709 76.29361,3.1096145 C77.3492116,3.47234416 78.2526307,3.51724517 79.0073859,3.24343709 C79.4137925,2.92560843 79.4753693,2.490685 79.1877178,1.92986268 C78.7505228,1.29684659 78.198971,1.04769005 77.5383402,1.18503429 C76.6771452,1.36551871 75.92239,1.72648755 75.2749544,2.27234287 C74.7920166,2.82700231 74.1516183,3.37902051 73.3528797,3.92311501 C73.2165311,3.56126576 72.9684647,3.33499992 72.6051618,3.24343709 C71.9128631,3.19853609 71.5504398,4.64681351 71.5214108,7.59091059 C71.5504398,10.7771209 71.1273195,13.3479234 70.2529295,15.3094809 C69.9371286,15.8993568 69.6644315,16.5543832 69.4383568,17.2798425 C69.122556,16.2383154 68.6158672,15.4468251 67.9226888,14.9018502 L67.9226888,14.9018502 Z" id="Fill-13" fill="#DD4039" mask="url(#mask-2)"></path>
                        <polyline id="Fill-15" fill="#1A1918" mask="url(#mask-2)" points="0 34.3598316 14.206639 34.3598316 14.206639 37.3884482 8.96909544 37.3884482 8.96909544 46.5280031 5.24018257 46.5280031 5.24018257 37.3884482 0 37.3884482 0 34.3598316"></polyline>
                    </g>
                    <polyline id="Fill-17" fill="#1A1918" points="16.7814274 35.2402434 20.5068216 35.2402434 20.5068216 39.5771519 28.3640166 39.5771519 28.3640166 35.2402434 32.0929295 35.2402434 32.0929295 47.4084149 28.3640166 47.4084149 28.3640166 42.8029808 20.5068216 42.8029808 20.5068216 47.4084149 16.7814274 47.4084149 16.7814274 35.2402434"></polyline>
                    <g id="Group-21" transform="translate(35.186722, 34.336060)">
                        <mask id="mask-4" fill="white">
                            <use xlink:href="#path-3"></use>
                        </mask>
                        <g id="Clip-19"></g>
                        <polyline id="Fill-18" fill="#1A1918" mask="url(#mask-4)" points="0.087966805 0.904182925 13.3859087 0.904182925 13.3859087 3.72942441 3.81512033 3.72942441 3.81512033 5.67601491 12.8827386 5.67601491 12.8827386 8.20103597 3.81512033 8.20103597 3.81512033 10.1485069 13.6023071 10.1485069 13.6023071 13.0723545 0.087966805 13.0723545 0.087966805 0.904182925"></polyline>
                        <path d="M25.620332,9.09113231 L29.3483651,9.09113231 C29.3659585,10.3826964 29.8858423,10.4857046 30.9607967,10.4857046 L35.5271535,10.4857046 C36.3162158,10.4857046 37.123751,10.4011851 37.123751,9.46266609 C37.123751,8.40000904 36.6856763,8.33485857 31.8826888,8.33485857 C26.274805,8.33485857 25.6370456,7.66222395 25.6370456,4.67058463 C25.6370456,2.46955512 25.8358506,0.772121154 30.5394357,0.772121154 L35.7435519,0.772121154 C40.044249,0.772121154 40.4444979,2.23536558 40.4444979,4.36948379 L40.4444979,4.75422375 L36.7182241,4.75422375 C36.7182241,3.86412742 36.6179419,3.49611528 34.9078672,3.49611528 L30.7743071,3.49611528 C29.9324647,3.49611528 29.3659585,3.77960788 29.3659585,4.43463427 C29.3659585,5.49376967 29.8172282,5.52634491 33.8161992,5.50961708 C39.6070539,5.49376967 40.9511867,5.84857563 40.9511867,9.39223315 C40.9511867,12.6682455 39.8436846,13.2061771 34.8885145,13.2061771 L30.3705394,13.2061771 C26.9794191,13.2061771 25.620332,12.5696394 25.620332,9.93016476 L25.620332,9.09113231" id="Fill-20" fill="#1A1918" mask="url(#mask-4)"></path>
                    </g>
                    <polyline id="Fill-22" fill="#1A1918" points="77.9060415 35.2402434 81.5505062 35.2402434 84.1340913 44.1843469 84.169278 44.1843469 87.2577925 35.2402434 90.7192863 35.2402434 93.8078008 44.1843469 93.8421079 44.1843469 96.4292116 35.2402434 100.071917 35.2402434 96.1239668 47.4084149 91.8426224 47.4084149 89.0056929 39.376418 88.9722656 39.376418 86.1353361 47.4084149 81.855751 47.4084149 77.9060415 35.2402434"></polyline>
                    <path d="M106.676465,42.6365829 L111.446905,42.6365829 L109.026058,38.0654849 L106.676465,42.6365829 L106.676465,42.6365829 Z M106.61049,35.2402434 L111.464498,35.2402434 L118.146456,47.4084149 L113.999701,47.4084149 L112.839419,45.2584493 L105.28483,45.2584493 L104.193162,47.4084149 L100.027934,47.4084149 L106.61049,35.2402434 L106.61049,35.2402434 Z" id="Fill-23" fill="#1A1918"></path>
                    <g id="Group-27" transform="translate(116.995851, 34.336060)">
                        <mask id="mask-6" fill="white">
                            <use xlink:href="#path-5"></use>
                        </mask>
                        <g id="Clip-25"></g>
                        <polyline id="Fill-24" fill="#1A1918" mask="url(#mask-6)" points="0.70373444 0.904182925 14.9077344 0.904182925 14.9077344 3.93279954 9.67282988 3.93279954 9.67282988 13.0723545 5.94215768 13.0723545 5.94215768 3.93279954 0.70373444 3.93279954 0.70373444 0.904182925"></polyline>
                        <path d="M17.3488133,5.17241936 C17.3488133,1.60939278 19.3465394,0.772121154 22.7068714,0.772121154 L27.0876183,0.772121154 C32.3928963,0.772121154 33.082556,1.91753691 33.048249,5.35994708 L29.3210954,5.35994708 L29.3210954,5.02274935 C29.3210954,4.14762002 28.6806971,3.89846348 27.5740747,3.89846348 L23.5126473,3.89846348 C21.5448299,3.89846348 21.1771286,4.82201546 21.1771286,6.33456295 L21.1771286,7.6437353 C21.1771286,9.4107218 21.5448299,10.0798348 23.3103237,10.0798348 L27.2899419,10.0798348 C28.9692282,10.0798348 29.4723983,9.91167611 29.4723983,8.40000904 L33.1995519,8.40000904 L33.1995519,9.54366398 C33.1995519,11.5932627 32.46239,13.2044163 28.7167635,13.2044163 L22.7068714,13.2044163 C19.3465394,13.2044163 17.3488133,12.3653838 17.3488133,8.80411806 L17.3488133,5.17241936" id="Fill-26" fill="#1A1918" mask="url(#mask-6)"></path>
                    </g>
                    <polyline id="Fill-28" fill="#1A1918" points="153.108863 35.2402434 156.834257 35.2402434 156.834257 39.5771519 164.692332 39.5771519 164.692332 35.2402434 168.423004 35.2402434 168.423004 47.4084149 164.692332 47.4084149 164.692332 42.8029808 156.834257 42.8029808 156.834257 47.4084149 153.108863 47.4084149 153.108863 35.2402434"></polyline>
                    <path d="M186.384066,42.6365829 L191.151867,42.6365829 L188.731021,38.0654849 L186.384066,42.6365829 L186.384066,42.6365829 Z M186.313693,35.2402434 L191.17034,35.2402434 L197.850539,47.4119366 L193.701145,47.4119366 L192.542622,45.2584493 L184.988913,45.2584493 L183.899004,47.4119366 L179.729378,47.4119366 L186.313693,35.2402434 L186.313693,35.2402434 Z" id="Fill-29" fill="#1A1918"></path>
                    <path d="M204.037245,41.2261632 L210.19756,41.2261632 C211.20566,41.2261632 211.576,40.823815 211.576,39.9504465 L211.576,39.5445767 C211.576,38.4695939 211.037643,38.26886 209.862407,38.26886 L204.037245,38.26886 L204.037245,41.2261632 L204.037245,41.2261632 Z M200.309212,35.2402434 L211.558407,35.2402434 C214.429643,35.2402434 215.201992,36.6691517 215.201992,38.8552142 L215.201992,39.6255746 C215.201992,41.2569776 214.832531,42.2148657 213.120697,42.6189747 L213.120697,42.6515499 C214.228199,42.8549251 215.151851,43.3417928 215.151851,45.3394472 L215.151851,47.4084149 L211.425577,47.4084149 L211.425577,45.9469313 C211.425577,44.6703342 211.055237,44.2477366 209.895834,44.2477366 L204.037245,44.2477366 L204.037245,47.4084149 L200.309212,47.4084149 L200.309212,35.2402434 L200.309212,35.2402434 Z" id="Fill-30" fill="#1A1918"></path>
                    <polyline id="Fill-31" fill="#1A1918" points="217.795253 35.2402434 232.001892 35.2402434 232.001892 38.26886 226.76171 38.26886 226.76171 47.4119366 223.033676 47.4119366 223.033676 38.26886 217.795253 38.26886 217.795253 35.2402434"></polyline>
                    <path d="M247.338025,41.3265302 L253.131519,41.3265302 C254.00327,41.3265302 254.339303,40.7533821 254.339303,40.0296836 L254.339303,39.5604241 C254.339303,38.7398803 253.937295,38.26886 252.813079,38.26886 L247.338025,38.26886 L247.338025,41.3265302 L247.338025,41.3265302 Z M243.609992,35.2402434 L253.768398,35.2402434 C257.313461,35.2402434 258.168498,37.0257185 258.168498,39.4089933 L258.168498,40.4522813 C258.168498,42.26681 257.378556,44.3489839 254.743071,44.3489839 L247.338025,44.3489839 L247.338025,47.4084149 L243.609992,47.4084149 L243.609992,35.2402434 L243.609992,35.2402434 Z" id="Fill-32" fill="#1A1918"></path>
                    <polyline id="Fill-33" fill="#1A1918" points="260.928017 35.2402434 274.226838 35.2402434 274.226838 38.0654849 264.65605 38.0654849 264.65605 40.0120754 273.723668 40.0120754 273.723668 42.5370964 264.65605 42.5370964 264.65605 44.4845673 274.445876 44.4845673 274.445876 47.4084149 260.928017 47.4084149 260.928017 35.2402434"></polyline>
                    <g id="Group-37" transform="translate(276.215768, 34.336060)">
                        <mask id="mask-8" fill="white">
                            <use xlink:href="#path-7"></use>
                        </mask>
                        <g id="Clip-35"></g>
                        <path d="M7.1860083,8.30052251 L11.9546888,8.30052251 L9.537361,3.72942441 L7.1860083,8.30052251 L7.1860083,8.30052251 Z M7.11915353,0.904182925 L11.9696432,0.904182925 L18.6551203,13.0723545 L14.5057261,13.0723545 L13.348083,10.9223889 L5.79173444,10.9223889 L4.70094606,13.0723545 L0.53659751,13.0723545 L7.11915353,0.904182925 L7.11915353,0.904182925 Z" id="Fill-34" fill="#1A1918" mask="url(#mask-8)"></path>
                        <path d="M20.3238506,5.17418018 C20.3238506,1.60939278 22.3215768,0.772121154 25.6792697,0.772121154 L30.0617759,0.772121154 C35.3688133,0.772121154 36.0567137,1.91753691 36.0232863,5.35994708 L32.2952531,5.35994708 L32.2952531,5.02451018 C32.2952531,4.15114167 31.6574938,3.89846348 30.5499917,3.89846348 L26.484166,3.89846348 C24.5207469,3.89846348 24.1512863,4.82201546 24.1512863,6.33456295 L24.1512863,7.64549612 C24.1512863,9.4107218 24.5207469,10.0833564 26.285361,10.0833564 L30.2632199,10.0833564 C31.9425062,10.0833564 32.446556,9.91167611 32.446556,8.40000904 L36.1745892,8.40000904 L36.1745892,9.54366398 C36.1745892,11.5932627 35.435668,13.2061771 31.6900415,13.2061771 L25.6792697,13.2061771 C22.3215768,13.2061771 20.3238506,12.3653838 20.3238506,8.80411806 L20.3238506,5.17418018" id="Fill-36" fill="#1A1918" mask="url(#mask-8)"></path>
                    </g>
                    <polyline id="Fill-38" fill="#1A1918" points="315.283585 35.2402434 328.583286 35.2402434 328.583286 38.0654849 319.011618 38.0654849 319.011618 40.0120754 328.078357 40.0120754 328.078357 42.5370964 319.011618 42.5370964 319.011618 44.4845673 328.801444 44.4845673 328.801444 47.4084149 315.283585 47.4084149 315.283585 35.2402434"></polyline>
                    <g id="Group-42" transform="translate(340.431535, 34.336060)">
                        <mask id="mask-10" fill="white">
                            <use xlink:href="#path-9"></use>
                        </mask>
                        <g id="Clip-40"></g>
                        <polyline id="Fill-39" fill="#1A1918" mask="url(#mask-10)" points="0.636879668 0.904182925 4.3640332 0.904182925 4.3640332 5.24109148 12.2238672 5.24109148 12.2238672 0.904182925 15.9510207 0.904182925 15.9510207 13.0723545 12.2238672 13.0723545 12.2238672 8.46692034 4.3640332 8.46692034 4.3640332 13.0723545 0.636879668 13.0723545 0.636879668 0.904182925"></polyline>
                        <path d="M22.7754855,7.64549612 C22.7754855,9.4107218 23.1449461,10.0833564 24.9069212,10.0833564 L29.6756017,10.0833564 C31.4393361,10.0833564 31.8087967,9.4107218 31.8087967,7.64549612 L31.8087967,6.33456295 C31.8087967,4.82201546 31.4393361,3.89846348 29.475917,3.89846348 L25.1083651,3.89846348 C23.1449461,3.89846348 22.7754855,4.82201546 22.7754855,6.33456295 L22.7754855,7.64549612 L22.7754855,7.64549612 Z M18.9471701,5.17418018 C18.9471701,1.60939278 20.9448963,0.772121154 24.3025892,0.772121154 L30.2816929,0.772121154 C33.6385062,0.772121154 35.6379917,1.60939278 35.6379917,5.17418018 L35.6379917,8.80411806 C35.6379917,12.3653838 33.6385062,13.2061771 30.2816929,13.2061771 L24.3025892,13.2061771 C20.9448963,13.2061771 18.9471701,12.3653838 18.9471701,8.80411806 L18.9471701,5.17418018 L18.9471701,5.17418018 Z" id="Fill-41" fill="#1A1918" mask="url(#mask-10)"></path>
                    </g>
                    <polyline id="Fill-43" fill="#1A1918" points="378.511485 35.2402434 392.717245 35.2402434 392.717245 38.26886 387.477942 38.26886 387.477942 47.4084149 383.749029 47.4084149 383.749029 38.26886 378.511485 38.26886 378.511485 35.2402434"></polyline>
                    <polyline id="Fill-44" fill="#1A1918" points="395.307867 35.2402434 408.607568 35.2402434 408.607568 38.0654849 399.035021 38.0654849 399.035021 40.0120754 408.102639 40.0120754 408.102639 42.5370964 399.035021 42.5370964 399.035021 44.4845673 408.823967 44.4845673 408.823967 47.4084149 395.307867 47.4084149 395.307867 35.2402434"></polyline>
                    <polyline id="Fill-45" fill="#1A1918" points="411.718954 35.2402434 415.445228 35.2402434 415.445228 44.2838334 423.825826 44.2838334 423.825826 47.4084149 411.718954 47.4084149 411.718954 35.2402434"></polyline>
                </g>
            </g>
        </g>
    </g>
</svg>